{"title":"Enrique Iglesias, Usher - Dirty Dancer ft. Lil Wayne.mp4","uid":7546999,"size":109203514,"categoryP":"video","categoryS":"music_videos","magnet":"?xt=urn:btih:3b1e2ec375bae10dd1295054de1d228746811092&amp;dn=Enrique+Iglesias%2C+Usher+-+Dirty+Dancer+ft.+Lil+Wayne.mp4&amp;tr=udp%3A%2F%2Ftracker.openbittorrent.com%3A80&amp;tr=udp%3A%2F%2Fopen.demonii.com%3A1337&amp;tr=udp%3A%2F%2Ftracker.coppersurfer.tk%3A6969&amp;tr=udp%3A%2F%2Fexodus.desync.com%3A6969","seeders":0,"leechers":0,"uploader":"abhi9852","files":1,"time":1345374515,"description":"\n\n\n\n\n\nFormat : MPEG-4\nFormat profile : Base Media / Version 2\nCodec ID : mp42\nFile size : 104 MiB\nDuration : 4mn 16s\nOverall bit rate mode : Variable\nOverall bit rate : 3 411 Kbps\n\n\nVideo\nID : 1\nFormat : AVC\nFormat/Info : Advanced Video Codec\nFormat profile : &lt;a class=&quot;__cf_email__&quot; href=&quot;/cdn-cgi/l/email-protection&quot; data-cfemail=&quot;e5ad8c828da5a9d1cbd5&quot;&gt;[email&amp;#160;protected]&lt;/a&gt;&lt;script data-cfhash='f9e31' type=&quot;text/javascript&quot;&gt;\n/* &lt;![CDATA[ */!function(){try{var t=&quot;currentScript&quot;in document?document.currentScript:function(){for(var t=document.getElementsByTagName(&quot;script&quot;),e=t.length;e--;)if(t[e].getAttribute(&quot;data-cfhash&quot;))return t[e]}();if(t&amp;&amp;t.previousSibling){var e,r,n,i,c=t.previousSibling,a=c.getAttribute(&quot;data-cfemail&quot;);if(a){for(e=&quot;&quot;,r=parseInt(a.substr(0,2),16),n=2;a.length-n;n+=2)i=parseInt(a.substr(n,2),16)^r,e+=String.fromCharCode(i);e=document.createTextNode(e),c.parentNode.replaceChild(e,c)}t.parentNode.removeChild(t);}}catch(u){}}()/* ]]&gt; */&lt;/script&gt;\nFormat settings, CABAC : Yes\nFormat settings, ReFrames : 1 frame\nFormat settings, GOP : M=1, N=25\nCodec ID : avc1\nCodec ID/Info : Advanced Video Coding\nDuration : 4mn 16s\nBit rate : 3 261 Kbps\nMaximum bit rate : 8 287 Kbps\nWidth : 1 920 pixels\nHeight : 1 080 pixels\nDisplay aspect ratio : 16:9\nFrame rate mode : Constant\nFrame rate : 25.000 fps\nColor space : YUV\nChroma subsampling : 4:2:0\nBit depth : 8 bits\nScan type : Progressive\nBits/(Pixel*Frame) : 0.063\nStream size : 99.6 MiB (96%)\nTagged date : UTC 2011-06-20 17:48:16\n\nAudio\nID : 2\nFormat : AAC\nFormat/Info : Advanced Audio Codec\nFormat profile : LC\nCodec ID : 40\nDuration : 4mn 16s\nBit rate mode : Variable\nBit rate : 144 Kbps\nMaximum bit rate : 219 Kbps\nChannel(s) : 2 channels\nChannel positions : Front: L R\nSampling rate : 44.1 KHz\nCompression mode : Lossy\nStream size : 4.42 MiB (4%) ","torrent":{"xt":"urn:btih:3b1e2ec375bae10dd1295054de1d228746811092","amp;dn":"Enrique+Iglesias%2C+Usher+-+Dirty+Dancer+ft.+Lil+Wayne.mp4","amp;tr":["udp%3A%2F%2Ftracker.openbittorrent.com%3A80","udp%3A%2F%2Fopen.demonii.com%3A1337","udp%3A%2F%2Ftracker.coppersurfer.tk%3A6969","udp%3A%2F%2Fexodus.desync.com%3A6969"],"infoHash":"3b1e2ec375bae10dd1295054de1d228746811092","infoHashBuffer":{"type":"Buffer","data":[59,30,46,195,117,186,225,13,209,41,80,84,222,29,34,135,70,129,16,146]},"announce":[],"urlList":[]}}